<svg xmlns="http://www.w3.org/2000/svg" width="256.821" height="248.143"><path d="M343.346-184.604c5.992-6.089 5.991-15.996 0-22.084-2.902-2.95-6.761-4.573-10.866-4.573-.975 0-1.934.09-2.87.268a15.721 15.721 0 006.722-12.903c0-8.611-6.894-15.616-15.367-15.616-5.227 0-9.926 2.696-12.714 6.855.922-4.944-.524-10.228-4.22-13.983-2.901-2.95-6.761-4.574-10.865-4.574-4.105 0-7.964 1.624-10.866 4.574-3.696 3.756-5.142 9.04-4.221 13.983-2.788-4.158-7.487-6.855-12.714-6.855-8.473 0-15.367 7.005-15.367 15.616a15.723 15.723 0 006.721 12.903 15.352 15.352 0 00-2.87-.268c-4.105 0-7.964 1.624-10.866 4.574-2.903 2.949-4.501 6.871-4.501 11.042 0 4.172 1.598 8.093 4.501 11.042 2.902 2.949 6.761 4.574 10.866 4.574.975 0 1.934-.09 2.87-.269a15.722 15.722 0 00-6.721 12.904c0 8.61 6.893 15.615 15.367 15.615 5.227 0 9.927-2.697 12.715-6.855-.922 4.944.524 10.228 4.22 13.983 2.902 2.95 6.761 4.574 10.866 4.574 4.105 0 7.964-1.624 10.866-4.574 3.696-3.756 5.142-9.04 4.22-13.983 2.788 4.158 7.487 6.855 12.714 6.855 8.474 0 15.367-7.005 15.367-15.615a15.725 15.725 0 00-6.722-12.904c.936.178 1.896.269 2.87.269 4.103-.001 7.963-1.626 10.865-4.575"/><path fill="#FFB13B" d="M338.709-201.979a8.715 8.715 0 00-12.464 0h-18.038l12.755-12.961c4.867 0 8.813-4.01 8.813-8.956s-3.946-8.957-8.813-8.957c-4.868 0-8.813 4.01-8.813 8.957l-12.755 12.962v-18.331c3.442-3.498 3.442-9.168 0-12.666-3.442-3.498-9.023-3.498-12.464 0s-3.442 9.169 0 12.666v18.331l-12.755-12.962c0-4.946-3.946-8.956-8.813-8.956s-8.813 4.01-8.813 8.956c0 4.947 3.946 8.957 8.813 8.957l12.756 12.961h-18.039a8.716 8.716 0 00-12.465 0c-3.441 3.498-3.441 9.169 0 12.667a8.717 8.717 0 0012.465 0h18.038l-12.754 12.961c-4.867 0-8.813 4.009-8.813 8.956 0 4.947 3.946 8.957 8.813 8.957 4.868 0 8.814-4.01 8.814-8.956l12.755-12.962v18.33c-3.442 3.498-3.442 9.169 0 12.666a8.715 8.715 0 0012.465 0c3.441-3.498 3.441-9.169 0-12.667v-18.33l12.755 12.962c0 4.946 3.946 8.956 8.813 8.956 4.868 0 8.814-4.009 8.814-8.956 0-4.947-3.946-8.956-8.813-8.956l-12.756-12.962h18.039a8.714 8.714 0 0012.464 0c3.438-3.499 3.438-9.17-.004-12.667"/><path fill="#FE9902" d="M244.308 151.618c-38.719-.004-77.439-.002-116.158-.002-38.719 0-77.439-.003-116.158.003-6.968.001-9.22 2.237-9.222 9.162-.01 24.786-.01 49.571 0 74.357.003 7.131 2.278 9.337 9.626 9.338 77.273.005 154.545.005 231.818.001 7.525 0 9.837-2.287 9.84-9.743.009-24.453.009-48.906 0-73.359-.004-7.574-2.191-9.757-9.746-9.757zM56.2 231.132c-11.804-.068-23.446-.107-35.249.036-3.227.039-3.89-1.356-3.854-4.209.118-9.485.045-18.973.045-28.46 0-9.32.122-18.643-.065-27.96-.068-3.385.833-4.68 4.447-4.663 8.982.041 8.983-.135 8.982 8.905 0 13.648.127 27.297-.083 40.941-.058 3.757.709 5.263 4.836 5.044 6.964-.37 13.963-.177 20.941-.177 5.493.002 5.216 10.574 0 10.543zm55.84-11.035c-7.007 10.085-18.948 14.226-31.133 10.747-10.717-3.06-18.281-12.69-18.838-24.865-.294-6.432-.649-12.923.624-19.365 2.64-13.36 14.782-22.774 28.072-21.587 14.756 1.318 25.03 11.599 25.508 25.578.091 2.651.013 5.308.013 7.963.271 7.495.306 14.976-4.246 21.529zm54.78 8.851c-15.452 5.776-34.895 3.219-40.37-13.9-3.501-10.948-3.551-22.467.041-33.339 6.512-19.707 29.878-19.754 40.901-11.78 4.53 3.277 6.772 8.091 7.4 13.622.088.776.172 1.81-.239 2.338-1.376 1.769-11.52.162-12.362-1.86-3.043-7.308-5.635-9.068-12.609-8.557-5.326.39-10.003 4.464-11.123 10.489-1.529 8.223-1.604 16.602.019 24.789 1.933 9.753 13.614 14.429 22.144 9.372 2.902-1.721 1.874-4.354 1.916-6.677.124-6.91.041-7.117-6.623-6.917-3.495.105-4.568-.927-4.486-4.445.074-3.19.449-4.848 4.255-4.622 5.627.334 11.295.231 16.934.026 2.89-.105 3.603 2.407 3.603 3.698-.001 8.858-.099 24.286-9.401 27.763zm68.627-9.611c-6.531 10.242-18.243 14.781-30.777 11.802-10.985-2.611-18.671-12.212-19.653-25.262-.459-6.103-.478-12.266.432-18.392 1.982-13.342 13.711-23.039 27.346-22.478 14.356.591 25.239 10.598 26.321 24.218.249 3.139.448 6.282.634 8.911-.444 7.63-.234 14.821-4.303 21.201zm-10.376-33.985a57.26 57.26 0 01-.065 26.628c-1.524 6.327-6.613 9.662-12.853 9.663-6.264.001-10.688-3.391-12.888-9.676-1.588-4.536-.931-9.207-1.135-13.831.217-4.128-.342-8.28.93-12.368 2.083-6.694 6.409-10.289 12.826-10.336 6.497-.047 11.629 3.313 13.185 9.92zM103.41 198.237c.064 4.315.248 8.634-.949 12.865-1.917 6.777-6.62 10.543-13.271 10.545-6.376.001-11.344-3.528-12.843-10.256-1.928-8.655-1.935-17.525.096-26.175 1.46-6.217 5.865-9.492 11.629-9.767 6.637-.318 11.002 2.483 13.65 8.581 1.992 4.585 1.776 9.395 1.688 14.207z"/><path fill="#010100" d="M76.103 55.857c-8.818-9.083-7.832-22.777.173-30.667a21.774 21.774 0 0130.469.004c.271-7.25 3.171-13.125 9.003-17.418 4.06-2.989 8.675-4.319 13.71-4.087 11.32.522 20.478 9.807 20.627 21.524 4.584-4.309 9.952-6.496 16.217-6.214 6.255.282 11.438 2.864 15.524 7.59 6.777 7.84 7.294 20.564-1.081 29.251 1.243.122 2.445.172 3.633.37 8.565 1.427 15.648 8.244 17.417 16.777.346 1.668.511 3.356.512 5.051.013 17.321.015 34.642.005 51.963-.006 9.643-6.086 17.784-15.317 20.536-1.9.567-3.847.875-5.833.875-35.186.002-70.372.042-105.558-.026-10.049-.019-18.484-6.97-20.573-16.736-.342-1.6-.52-3.209-.52-4.846.006-17.234-.031-34.468.019-51.702.024-8.196 3.454-14.636 10.422-19.056 3.181-2.018 6.718-2.997 10.481-3.15.195-.006.389-.022.67-.039zm32.28 13.17l-.135.222h-.369c-7.638 0-15.275-.003-22.913.009-.39.001-.639-.159-.909-.398-2.808-2.486-6.087-3.516-9.778-2.869-5.504.965-9.207 5.073-9.752 10.638-.088.898-.088.898.833.898h125.921c1.096 0 1.126-.004.997-1.102-.549-4.657-2.958-8.013-7.304-9.747-4.424-1.766-8.529-.936-12.158 2.148-.338.287-.647.432-1.093.432-7.507-.012-15.014-.009-22.521-.009h-.65c.053-.33.284-.444.442-.602 5.104-5.112 10.227-10.206 15.306-15.343.684-.692 1.379-1.021 2.343-1.115 6.816-.669 11.611-7.311 10.17-13.997-1.211-5.622-6.381-9.842-12.765-9.254-5.521.509-10.094 5.325-10.399 11.112-.021.402-.143.68-.423.959-5.33 5.317-10.651 10.643-15.978 15.964-.146.146-.253.352-.491.398-.141-.154-.072-.336-.072-.498-.004-7.594-.001-15.188-.012-22.782-.001-.382.131-.643.38-.917 2.098-2.311 3.143-5.049 3.058-8.155-.188-6.862-5.961-12.014-12.808-11.347-4.694.457-8.045 2.988-9.76 7.364-1.726 4.406-.888 8.495 2.196 12.094.274.32.414.611.414 1.035-.011 7.55-.007 15.101-.012 22.651 0 .182.079.387-.079.559-.245-.083-.373-.295-.537-.459-5.096-5.09-10.175-10.197-15.296-15.26-.707-.699-1.054-1.403-1.148-2.397-.641-6.807-7.404-11.638-14.081-10.112-5.916 1.353-9.634 6.509-9.155 12.698.428 5.527 5.266 10.101 11.067 10.433.454.026.756.18 1.065.489 5.27 5.285 10.548 10.562 15.829 15.835.168.167.384.284.577.425zm50.538 45.417h.012c0-4.461.011-8.921-.006-13.382-.006-1.517.332-2.931 1.102-4.231a7.9 7.9 0 018.685-3.662c3.372.811 5.833 3.752 6.046 7.233.016.269-.028.487.393.485 3.481-.019 6.963-.015 10.444-.004.315.001.409-.088.398-.403a22.568 22.568 0 00-.243-2.596c-1.619-10.764-12.209-18.066-22.873-15.77-8.911 1.919-15.188 9.704-15.186 18.838.002 8.856.008 17.712.009 26.568 0 1.089.031 2.176.19 3.254 1.491 10.076 10.601 17.178 20.817 16.231 9.656-.895 17.218-9.094 17.276-18.787.037-6.288.001-12.577.019-18.865.001-.475-.145-.555-.582-.555-5.984.011-11.967.008-17.951-.011-.491-.002-.667.095-.662.634.027 3.329.025 6.658.002 9.987-.004.514.128.659.648.652 2.263-.029 4.526-.005 6.789-.02.366-.002.53.042.526.48-.023 2.567.025 5.136-.017 7.702-.079 4.901-4.888 8.598-9.665 7.467-3.664-.868-6.148-3.98-6.167-7.799-.021-4.481-.004-8.964-.004-13.446zm-55.17-13.559c1.697 0 3.394-.012 5.091.009.41.005.558-.08.544-.529a18.539 18.539 0 00-.347-3.173c-2.148-10.438-11.874-17.019-22.354-15.135-10.827 1.947-17.871 13.016-14.969 23.639 1.999 7.316 6.837 11.722 14.176 13.482 2.113.507 4.267.788 6.38 1.295 4.66 1.118 6.546 5.551 5.692 9.288-.871 3.813-4.492 6.424-8.431 6.102-3.857-.315-6.978-3.524-7.207-7.423-.019-.316-.027-.514-.448-.512-3.459.017-6.919.015-10.378.001-.375-.002-.436.149-.409.462.063.736.069 1.48.172 2.21 1.455 10.393 11.04 17.696 21.442 16.35 8.701-1.126 15.484-8.033 16.545-16.802 1.01-8.351-3.802-17.783-13.813-20.41-2.28-.598-4.609-.855-6.916-1.257-3.935-.686-6.672-4.537-6.163-8.6.51-4.069 4.038-7.061 8.131-6.948 4.07.112 7.373 3.328 7.633 7.463.026.413.158.498.539.494 1.696-.017 3.393-.006 5.09-.006zm24.844 18.84c-.102-.126-.141-.152-.147-.184-2.575-12.415-5.152-24.83-7.706-37.25-.104-.504-.301-.602-.764-.599a656.45 656.45 0 01-9.923-.006c-.585-.006-.672.15-.561.68a7620.075 7620.075 0 014.536 21.742 47032.59 47032.59 0 018.775 42.485c.077.375.196.529.621.526a768.26 768.26 0 0110.184.001c.449.003.578-.159.658-.554.653-3.213 1.323-6.422 1.988-9.633 1.981-9.567 3.959-19.135 5.943-28.702 1.794-8.652 3.592-17.304 5.397-25.954.092-.441.018-.59-.477-.586a975.19 975.19 0 01-10.119.004c-.383-.001-.558.072-.646.5-1.805 8.783-3.632 17.562-5.452 26.342-.766 3.695-1.524 7.393-2.307 11.188z"/><path fill="#FE9902" d="M108.383 69.027c-.193-.141-.409-.258-.576-.425a10274.58 10274.58 0 01-15.829-15.835c-.308-.309-.611-.463-1.065-.489-5.801-.332-10.639-4.906-11.067-10.433-.479-6.189 3.238-11.345 9.155-12.698 6.676-1.526 13.439 3.305 14.081 10.112.094.994.441 1.698 1.148 2.397 5.122 5.063 10.201 10.17 15.296 15.26.164.164.293.376.537.459.158-.172.079-.377.079-.559.005-7.55.001-15.101.012-22.651.001-.424-.14-.715-.414-1.035-3.083-3.599-3.922-7.688-2.196-12.094 1.715-4.377 5.066-6.907 9.76-7.364 6.848-.667 12.621 4.485 12.808 11.347.085 3.107-.96 5.845-3.058 8.155-.249.274-.38.535-.38.917.011 7.594.007 15.188.012 22.782 0 .162-.069.344.072.498.237-.046.345-.252.491-.398 5.326-5.321 10.647-10.647 15.978-15.964.28-.28.402-.557.423-.959.305-5.786 4.878-10.603 10.399-11.112 6.383-.588 11.554 3.632 12.765 9.254 1.44 6.686-3.354 13.328-10.17 13.997-.964.095-1.659.424-2.343 1.115-5.079 5.137-10.202 10.231-15.306 15.343-.158.158-.389.272-.442.602h.65c7.507 0 15.014-.004 22.521.009.447.001.756-.144 1.093-.432 3.629-3.083 7.734-3.913 12.158-2.148 4.346 1.734 6.755 5.09 7.304 9.747.129 1.098.099 1.102-.997 1.102H65.361c-.921 0-.921 0-.833-.898.545-5.566 4.247-9.673 9.752-10.638 3.692-.647 6.97.384 9.778 2.869.271.24.519.399.909.398 7.637-.012 15.275-.009 22.913-.009h.369l.134-.222z"/></svg>